<mxfile host="app.diagrams.net" agent="Mozilla/5.0 (Macintosh; Intel Mac OS X 10_15_7) AppleWebKit/537.36 (KHTML, like Gecko) Chrome/128.0.0.0 Safari/537.36" version="24.7.16">
  <diagram name="[0] topology" id="DtRPSw0Q84hj6Syw1lVk">
    <mxGraphModel dx="532" dy="296" grid="1" gridSize="1" guides="1" tooltips="1" connect="1" arrows="1" fold="1" page="1" pageScale="1" pageWidth="3300" pageHeight="4681" background="#4D5766" math="0" shadow="0">
      <root>
        <mxCell id="0" />
        <mxCell id="1" parent="0" />
        <mxCell id="O7J6RxFzi4Y3cEokYbyO-1" style="rounded=0;orthogonalLoop=1;jettySize=auto;html=1;exitX=0.5;exitY=0;exitDx=0;exitDy=0;startSize=6;endArrow=none;endFill=0;endSize=2;fontFamily=Manrope;fontSize=8;strokeColor=#98A2AE;fontSource=https%3A%2F%2Ffonts.googleapis.com%2Fcss%3Ffamily%3DManrope;entryX=0.5;entryY=1;entryDx=0;entryDy=0;" edge="1" parent="1" source="O7J6RxFzi4Y3cEokYbyO-11" target="O7J6RxFzi4Y3cEokYbyO-23">
          <mxGeometry relative="1" as="geometry">
            <mxPoint x="317" y="326" as="sourcePoint" />
            <mxPoint x="354" y="302" as="targetPoint" />
          </mxGeometry>
        </mxCell>
        <mxCell id="O7J6RxFzi4Y3cEokYbyO-2" style="rounded=0;orthogonalLoop=1;jettySize=auto;html=1;exitX=0.5;exitY=0;exitDx=0;exitDy=0;entryX=0.5;entryY=1;entryDx=0;entryDy=0;startSize=6;endArrow=none;endFill=0;endSize=2;fontFamily=Manrope;fontSize=8;strokeColor=#98A2AE;fontSource=https%3A%2F%2Ffonts.googleapis.com%2Fcss%3Ffamily%3DManrope;" edge="1" parent="1" source="O7J6RxFzi4Y3cEokYbyO-5" target="O7J6RxFzi4Y3cEokYbyO-23">
          <mxGeometry relative="1" as="geometry">
            <mxPoint x="319" y="328" as="sourcePoint" />
            <mxPoint x="341" y="304" as="targetPoint" />
          </mxGeometry>
        </mxCell>
        <mxCell id="O7J6RxFzi4Y3cEokYbyO-3" value="&lt;font&gt;leaf1&lt;br&gt;&lt;font color=&quot;#bec8d2&quot; style=&quot;font-size: 8px&quot;&gt;IXR-D2L&lt;/font&gt;&lt;br&gt;&lt;/font&gt;" style="text;html=1;align=center;verticalAlign=middle;resizable=0;points=[];autosize=1;fontSize=10;fontFamily=Google Sans;fontStyle=0;fontColor=#FFFFFF;fontSource=https%3A%2F%2Ffonts.googleapis.com%2Fcss%3Ffamily%3DGoogle%2BSans;" vertex="1" parent="1">
          <mxGeometry x="260" y="353.71" width="48" height="37" as="geometry" />
        </mxCell>
        <mxCell id="O7J6RxFzi4Y3cEokYbyO-4" value="" style="group;fontFamily=Manrope;fontSource=https%3A%2F%2Ffonts.googleapis.com%2Fcss%3Ffamily%3DManrope;" vertex="1" connectable="0" parent="1">
          <mxGeometry x="413" y="358" width="30" height="30" as="geometry" />
        </mxCell>
        <mxCell id="O7J6RxFzi4Y3cEokYbyO-5" value="" style="whiteSpace=wrap;html=1;aspect=fixed;fillColor=#001135;strokeColor=none;connectable=1;allowArrows=1;fontFamily=Manrope;fontSource=https%3A%2F%2Ffonts.googleapis.com%2Fcss%3Ffamily%3DManrope;" vertex="1" parent="O7J6RxFzi4Y3cEokYbyO-4">
          <mxGeometry width="30" height="30" as="geometry" />
        </mxCell>
        <mxCell id="O7J6RxFzi4Y3cEokYbyO-6" value="" style="endArrow=open;html=1;edgeStyle=orthogonalEdgeStyle;rounded=0;endFill=0;startSize=6;endSize=2;strokeColor=#FFFFFF;fontFamily=Manrope;fontSource=https%3A%2F%2Ffonts.googleapis.com%2Fcss%3Ffamily%3DManrope;" edge="1" parent="O7J6RxFzi4Y3cEokYbyO-4">
          <mxGeometry width="50" height="50" relative="1" as="geometry">
            <mxPoint x="3" y="12" as="sourcePoint" />
            <mxPoint x="11" y="3" as="targetPoint" />
            <Array as="points">
              <mxPoint x="11" y="12" />
            </Array>
          </mxGeometry>
        </mxCell>
        <mxCell id="O7J6RxFzi4Y3cEokYbyO-7" value="" style="endArrow=open;html=1;edgeStyle=orthogonalEdgeStyle;rounded=0;endFill=0;startSize=6;endSize=2;strokeColor=#FFFFFF;fontFamily=Manrope;fontSource=https%3A%2F%2Ffonts.googleapis.com%2Fcss%3Ffamily%3DManrope;" edge="1" parent="O7J6RxFzi4Y3cEokYbyO-4">
          <mxGeometry width="50" height="50" relative="1" as="geometry">
            <mxPoint x="11" y="27" as="sourcePoint" />
            <mxPoint x="3" y="19" as="targetPoint" />
            <Array as="points">
              <mxPoint x="11" y="19" />
            </Array>
          </mxGeometry>
        </mxCell>
        <mxCell id="O7J6RxFzi4Y3cEokYbyO-8" value="" style="endArrow=open;html=1;edgeStyle=orthogonalEdgeStyle;rounded=0;endFill=0;startSize=6;endSize=2;strokeColor=#FFFFFF;fontFamily=Manrope;fontSource=https%3A%2F%2Ffonts.googleapis.com%2Fcss%3Ffamily%3DManrope;" edge="1" parent="O7J6RxFzi4Y3cEokYbyO-4">
          <mxGeometry width="50" height="50" relative="1" as="geometry">
            <mxPoint x="18" y="3" as="sourcePoint" />
            <mxPoint x="27" y="12" as="targetPoint" />
            <Array as="points">
              <mxPoint x="18" y="12" />
            </Array>
          </mxGeometry>
        </mxCell>
        <mxCell id="O7J6RxFzi4Y3cEokYbyO-9" value="" style="endArrow=open;html=1;edgeStyle=orthogonalEdgeStyle;rounded=0;endFill=0;startSize=6;endSize=2;strokeColor=#FFFFFF;fontFamily=Manrope;fontSource=https%3A%2F%2Ffonts.googleapis.com%2Fcss%3Ffamily%3DManrope;" edge="1" parent="O7J6RxFzi4Y3cEokYbyO-4">
          <mxGeometry width="50" height="50" relative="1" as="geometry">
            <mxPoint x="27" y="19" as="sourcePoint" />
            <mxPoint x="18" y="27" as="targetPoint" />
            <Array as="points">
              <mxPoint x="18" y="19" />
            </Array>
          </mxGeometry>
        </mxCell>
        <mxCell id="O7J6RxFzi4Y3cEokYbyO-10" value="" style="group" vertex="1" connectable="0" parent="1">
          <mxGeometry x="302" y="358" width="30" height="30" as="geometry" />
        </mxCell>
        <mxCell id="O7J6RxFzi4Y3cEokYbyO-11" value="" style="whiteSpace=wrap;html=1;aspect=fixed;fillColor=#001135;strokeColor=none;connectable=1;allowArrows=1;fontFamily=Manrope;fontSource=https%3A%2F%2Ffonts.googleapis.com%2Fcss%3Ffamily%3DManrope;" vertex="1" parent="O7J6RxFzi4Y3cEokYbyO-10">
          <mxGeometry width="30" height="30" as="geometry" />
        </mxCell>
        <mxCell id="O7J6RxFzi4Y3cEokYbyO-12" value="" style="endArrow=open;html=1;edgeStyle=orthogonalEdgeStyle;rounded=0;endFill=0;startSize=6;endSize=2;strokeColor=#FFFFFF;fontFamily=Manrope;fontSource=https%3A%2F%2Ffonts.googleapis.com%2Fcss%3Ffamily%3DManrope;" edge="1" parent="O7J6RxFzi4Y3cEokYbyO-10">
          <mxGeometry width="50" height="50" as="geometry">
            <mxPoint x="3" y="12" as="sourcePoint" />
            <mxPoint x="11" y="3" as="targetPoint" />
            <Array as="points">
              <mxPoint x="11" y="12" />
            </Array>
          </mxGeometry>
        </mxCell>
        <mxCell id="O7J6RxFzi4Y3cEokYbyO-13" value="" style="endArrow=open;html=1;edgeStyle=orthogonalEdgeStyle;rounded=0;endFill=0;startSize=6;endSize=2;strokeColor=#FFFFFF;fontFamily=Manrope;fontSource=https%3A%2F%2Ffonts.googleapis.com%2Fcss%3Ffamily%3DManrope;" edge="1" parent="O7J6RxFzi4Y3cEokYbyO-10">
          <mxGeometry width="50" height="50" as="geometry">
            <mxPoint x="11" y="27" as="sourcePoint" />
            <mxPoint x="3" y="19" as="targetPoint" />
            <Array as="points">
              <mxPoint x="11" y="19" />
            </Array>
          </mxGeometry>
        </mxCell>
        <mxCell id="O7J6RxFzi4Y3cEokYbyO-14" value="" style="endArrow=open;html=1;edgeStyle=orthogonalEdgeStyle;rounded=0;endFill=0;startSize=6;endSize=2;strokeColor=#FFFFFF;fontFamily=Manrope;fontSource=https%3A%2F%2Ffonts.googleapis.com%2Fcss%3Ffamily%3DManrope;" edge="1" parent="O7J6RxFzi4Y3cEokYbyO-10">
          <mxGeometry width="50" height="50" as="geometry">
            <mxPoint x="18" y="3" as="sourcePoint" />
            <mxPoint x="27" y="12" as="targetPoint" />
            <Array as="points">
              <mxPoint x="18" y="12" />
            </Array>
          </mxGeometry>
        </mxCell>
        <mxCell id="O7J6RxFzi4Y3cEokYbyO-15" value="" style="endArrow=open;html=1;edgeStyle=orthogonalEdgeStyle;rounded=0;endFill=0;startSize=6;endSize=2;strokeColor=#FFFFFF;fontFamily=Manrope;fontSource=https%3A%2F%2Ffonts.googleapis.com%2Fcss%3Ffamily%3DManrope;" edge="1" parent="O7J6RxFzi4Y3cEokYbyO-10">
          <mxGeometry width="50" height="50" as="geometry">
            <mxPoint x="27" y="19" as="sourcePoint" />
            <mxPoint x="18" y="27" as="targetPoint" />
            <Array as="points">
              <mxPoint x="18" y="19" />
            </Array>
          </mxGeometry>
        </mxCell>
        <mxCell id="O7J6RxFzi4Y3cEokYbyO-16" value="&lt;font&gt;leaf2&lt;br&gt;&lt;font color=&quot;#bec8d2&quot; style=&quot;font-size: 8px&quot;&gt;IXR-D2L&lt;/font&gt;&lt;br&gt;&lt;/font&gt;" style="text;html=1;align=center;verticalAlign=middle;resizable=0;points=[];autosize=1;fontSize=10;fontFamily=Google Sans;fontStyle=0;fontColor=#FFFFFF;fontSource=https%3A%2F%2Ffonts.googleapis.com%2Fcss%3Ffamily%3DGoogle%2BSans;" vertex="1" parent="1">
          <mxGeometry x="434" y="353.71" width="48" height="37" as="geometry" />
        </mxCell>
        <mxCell id="O7J6RxFzi4Y3cEokYbyO-17" value="&lt;font&gt;spine1&lt;br&gt;&lt;span style=&quot;color: rgb(190 , 200 , 210)&quot;&gt;&lt;font style=&quot;font-size: 8px&quot;&gt;IXR-D5&lt;/font&gt;&lt;/span&gt;&lt;br&gt;&lt;/font&gt;" style="text;html=1;align=center;verticalAlign=middle;resizable=0;points=[];autosize=1;fontSize=10;fontFamily=Google Sans;fontStyle=0;fontColor=#FFFFFF;connectable=0;fontSource=https%3A%2F%2Ffonts.googleapis.com%2Fcss%3Ffamily%3DGoogle%2BSans;" vertex="1" parent="1">
          <mxGeometry x="349.5" y="238" width="47" height="37" as="geometry" />
        </mxCell>
        <mxCell id="O7J6RxFzi4Y3cEokYbyO-18" value="&lt;font style=&quot;font-size: 10px&quot;&gt;client1&lt;/font&gt;" style="text;html=1;align=center;verticalAlign=middle;resizable=0;points=[];autosize=1;fontSize=10;fontFamily=Google Sans;fontStyle=0;fontColor=#FFFFFF;fontSource=https%3A%2F%2Ffonts.googleapis.com%2Fcss%3Ffamily%3DGoogle%2BSans;" vertex="1" parent="1">
          <mxGeometry x="294" y="436.44" width="47" height="25" as="geometry" />
        </mxCell>
        <mxCell id="O7J6RxFzi4Y3cEokYbyO-19" style="rounded=0;orthogonalLoop=1;jettySize=auto;html=1;exitX=0.5;exitY=0;exitDx=0;exitDy=0;startSize=6;endArrow=none;endFill=0;endSize=2;fontFamily=Manrope;fontSize=8;strokeColor=#98A2AE;fontSource=https%3A%2F%2Ffonts.googleapis.com%2Fcss%3Ffamily%3DManrope;entryX=0.5;entryY=1;entryDx=0;entryDy=0;" edge="1" parent="1" source="O7J6RxFzi4Y3cEokYbyO-28" target="O7J6RxFzi4Y3cEokYbyO-11">
          <mxGeometry relative="1" as="geometry">
            <mxPoint x="317.0987037037037" y="424" as="sourcePoint" />
            <mxPoint x="375" y="259" as="targetPoint" />
          </mxGeometry>
        </mxCell>
        <mxCell id="O7J6RxFzi4Y3cEokYbyO-20" value="&lt;font style=&quot;font-size: 10px&quot;&gt;client2&lt;/font&gt;" style="text;html=1;align=center;verticalAlign=middle;resizable=0;points=[];autosize=1;fontSize=10;fontFamily=Google Sans;fontStyle=0;fontColor=#FFFFFF;fontSource=https%3A%2F%2Ffonts.googleapis.com%2Fcss%3Ffamily%3DGoogle%2BSans;" vertex="1" parent="1">
          <mxGeometry x="404" y="436.44" width="49" height="25" as="geometry" />
        </mxCell>
        <mxCell id="O7J6RxFzi4Y3cEokYbyO-21" style="rounded=0;orthogonalLoop=1;jettySize=auto;html=1;startSize=6;endArrow=none;endFill=0;endSize=2;fontFamily=Manrope;fontSize=8;strokeColor=#98A2AE;fontSource=https%3A%2F%2Ffonts.googleapis.com%2Fcss%3Ffamily%3DManrope;entryX=0.5;entryY=0;entryDx=0;entryDy=0;exitX=0.5;exitY=1;exitDx=0;exitDy=0;" edge="1" parent="1" source="O7J6RxFzi4Y3cEokYbyO-5" target="O7J6RxFzi4Y3cEokYbyO-29">
          <mxGeometry relative="1" as="geometry">
            <mxPoint x="479" y="361" as="sourcePoint" />
            <mxPoint x="428.0987037037038" y="424" as="targetPoint" />
          </mxGeometry>
        </mxCell>
        <mxCell id="O7J6RxFzi4Y3cEokYbyO-22" value="" style="group;fontFamily=Manrope;fontSource=https%3A%2F%2Ffonts.googleapis.com%2Fcss%3Ffamily%3DManrope;" vertex="1" connectable="0" parent="1">
          <mxGeometry x="358" y="272" width="30" height="30" as="geometry" />
        </mxCell>
        <mxCell id="O7J6RxFzi4Y3cEokYbyO-23" value="" style="whiteSpace=wrap;html=1;aspect=fixed;fillColor=#001135;strokeColor=none;connectable=1;allowArrows=1;fontFamily=Manrope;fontSource=https%3A%2F%2Ffonts.googleapis.com%2Fcss%3Ffamily%3DManrope;" vertex="1" parent="O7J6RxFzi4Y3cEokYbyO-22">
          <mxGeometry width="30" height="30" as="geometry" />
        </mxCell>
        <mxCell id="O7J6RxFzi4Y3cEokYbyO-24" value="" style="endArrow=open;html=1;edgeStyle=orthogonalEdgeStyle;rounded=0;endFill=0;startSize=6;endSize=2;strokeColor=#FFFFFF;fontFamily=Manrope;fontSource=https%3A%2F%2Ffonts.googleapis.com%2Fcss%3Ffamily%3DManrope;" edge="1" parent="O7J6RxFzi4Y3cEokYbyO-22">
          <mxGeometry width="50" height="50" relative="1" as="geometry">
            <mxPoint x="3" y="12" as="sourcePoint" />
            <mxPoint x="11" y="3" as="targetPoint" />
            <Array as="points">
              <mxPoint x="11" y="12" />
            </Array>
          </mxGeometry>
        </mxCell>
        <mxCell id="O7J6RxFzi4Y3cEokYbyO-25" value="" style="endArrow=open;html=1;edgeStyle=orthogonalEdgeStyle;rounded=0;endFill=0;startSize=6;endSize=2;strokeColor=#FFFFFF;fontFamily=Manrope;fontSource=https%3A%2F%2Ffonts.googleapis.com%2Fcss%3Ffamily%3DManrope;" edge="1" parent="O7J6RxFzi4Y3cEokYbyO-22">
          <mxGeometry width="50" height="50" relative="1" as="geometry">
            <mxPoint x="11" y="27" as="sourcePoint" />
            <mxPoint x="3" y="19" as="targetPoint" />
            <Array as="points">
              <mxPoint x="11" y="19" />
            </Array>
          </mxGeometry>
        </mxCell>
        <mxCell id="O7J6RxFzi4Y3cEokYbyO-26" value="" style="endArrow=open;html=1;edgeStyle=orthogonalEdgeStyle;rounded=0;endFill=0;startSize=6;endSize=2;strokeColor=#FFFFFF;fontFamily=Manrope;fontSource=https%3A%2F%2Ffonts.googleapis.com%2Fcss%3Ffamily%3DManrope;" edge="1" parent="O7J6RxFzi4Y3cEokYbyO-22">
          <mxGeometry width="50" height="50" relative="1" as="geometry">
            <mxPoint x="18" y="3" as="sourcePoint" />
            <mxPoint x="27" y="12" as="targetPoint" />
            <Array as="points">
              <mxPoint x="18" y="12" />
            </Array>
          </mxGeometry>
        </mxCell>
        <mxCell id="O7J6RxFzi4Y3cEokYbyO-27" value="" style="endArrow=open;html=1;edgeStyle=orthogonalEdgeStyle;rounded=0;endFill=0;startSize=6;endSize=2;strokeColor=#FFFFFF;fontFamily=Manrope;fontSource=https%3A%2F%2Ffonts.googleapis.com%2Fcss%3Ffamily%3DManrope;" edge="1" parent="O7J6RxFzi4Y3cEokYbyO-22">
          <mxGeometry width="50" height="50" relative="1" as="geometry">
            <mxPoint x="27" y="19" as="sourcePoint" />
            <mxPoint x="18" y="27" as="targetPoint" />
            <Array as="points">
              <mxPoint x="18" y="19" />
            </Array>
          </mxGeometry>
        </mxCell>
        <mxCell id="O7J6RxFzi4Y3cEokYbyO-28" value="" style="shape=image;editableCssRules=\.st[02];verticalLabelPosition=bottom;labelBackgroundColor=#ffffff;verticalAlign=top;aspect=fixed;imageAspect=0;image=data:image/svg+xml,PHN2ZyB4bWxucz0iaHR0cDovL3d3dy53My5vcmcvMjAwMC9zdmciIHhtbG5zOnhsaW5rPSJodHRwOi8vd3d3LnczLm9yZy8xOTk5L3hsaW5rIiB2ZXJzaW9uPSIxLjEiIGlkPSJMYXllcl8xIiB4PSIwcHgiIHk9IjBweCIgd2lkdGg9IjE0MS42OTk5OTY5NDgyNDIyIiBoZWlnaHQ9IjE0MS42OTk5OTY5NDgyNDIyIiB2aWV3Qm94PSIwIDAgMTQxLjY5OTk5Njk0ODI0MjIgMTQxLjY5OTk5Njk0ODI0MjIiIHN0eWxlPSJlbmFibGUtYmFja2dyb3VuZDpuZXcgMCAwIDE0MS43IDE0MS43OyIgeG1sOnNwYWNlPSJwcmVzZXJ2ZSI+JiN4YTs8c3R5bGUgdHlwZT0idGV4dC9jc3MiPiYjeGE7CS5zdDB7ZmlsbDojMDAxMTM1O30mI3hhOwkuc3Qxe2ZpbGw6I0ZGRkZGRjt9JiN4YTsJLnN0MntmaWxsOm5vbmU7c3Ryb2tlOiNGRkZGRkY7c3Ryb2tlLXdpZHRoOjQ7c3Ryb2tlLW1pdGVybGltaXQ6MTA7fSYjeGE7CS5zdDN7ZmlsbDpub25lO3N0cm9rZTojRkZGRkZGO3N0cm9rZS13aWR0aDo0O3N0cm9rZS1saW5lam9pbjpyb3VuZDt9JiN4YTsJLnN0NHtmaWxsOiNGRkZGRkY7c3Ryb2tlOiNGRkZGRkY7c3Ryb2tlLW1pdGVybGltaXQ6MTA7fSYjeGE7CS5zdDV7ZmlsbDpub25lO30mI3hhOwkuc3Q2e2ZpbGw6I0ZGRkZGRjtzdHJva2U6I0ZGRkZGRjtzdHJva2Utd2lkdGg6MS42O3N0cm9rZS1taXRlcmxpbWl0OjEwO30mI3hhOwkuc3Q3e2ZpbGw6bm9uZTtzdHJva2U6I0ZGRkZGRjtzdHJva2Utd2lkdGg6NDt9JiN4YTsJLnN0OHtmaWxsOiMwMDExMzU7c3Ryb2tlOiNGRkZGRkY7c3Ryb2tlLXdpZHRoOjQ7c3Ryb2tlLW1pdGVybGltaXQ6MTA7fSYjeGE7CS5zdDl7ZmlsbDpub25lO3N0cm9rZTojRkZGRkZGO3N0cm9rZS13aWR0aDo0LjAwMDI7c3Ryb2tlLW1pdGVybGltaXQ6MTA7fSYjeGE7CS5zdDEwe2ZpbGw6bm9uZTtzdHJva2U6I0ZGRkZGRjtzdHJva2Utd2lkdGg6MC4zO3N0cm9rZS1taXRlcmxpbWl0OjEwO30mI3hhOwkuc3QxMXtmaWxsOm5vbmU7c3Ryb2tlOiNGRkZGRkY7c3Ryb2tlLXdpZHRoOjMuOTk5NTtzdHJva2UtbWl0ZXJsaW1pdDoxMDt9JiN4YTsJLnN0MTJ7ZmlsbDpub25lO3N0cm9rZTojRkZGRkZGO3N0cm9rZS13aWR0aDozLjk5OTY7c3Ryb2tlLW1pdGVybGltaXQ6MTA7fSYjeGE7CS5zdDEze2ZpbGw6bm9uZTtzdHJva2U6I0ZGRkZGRjtzdHJva2Utd2lkdGg6MztzdHJva2UtbWl0ZXJsaW1pdDoxMDt9JiN4YTsJLnN0MTR7ZmlsbDpub25lO3N0cm9rZTojRkZGRkZGO3N0cm9rZS13aWR0aDo0O3N0cm9rZS1saW5lam9pbjpyb3VuZDtzdHJva2UtbWl0ZXJsaW1pdDoxMDt9JiN4YTsJLnN0MTV7ZmlsbDpub25lO3N0cm9rZTojRkZGRkZGO3N0cm9rZS13aWR0aDo0O3N0cm9rZS1saW5lY2FwOnJvdW5kO3N0cm9rZS1saW5lam9pbjpyb3VuZDtzdHJva2UtbWl0ZXJsaW1pdDoxMDt9JiN4YTsJLnN0MTZ7ZmlsbDojMDAxODQ1O3N0cm9rZTojRkZGRkZGO3N0cm9rZS13aWR0aDo0LjM1NjY7c3Ryb2tlLWxpbmVjYXA6cm91bmQ7c3Ryb2tlLWxpbmVqb2luOnJvdW5kO3N0cm9rZS1taXRlcmxpbWl0OjEwO30mI3hhOwkuc3QxN3tmaWxsOm5vbmU7c3Ryb2tlOiNGRkZGRkY7c3Ryb2tlLXdpZHRoOjQ7c3Ryb2tlLWxpbmVjYXA6cm91bmQ7fSYjeGE7CS5zdDE4e2ZpbGw6IzAwMTEzNTtzdHJva2U6I0ZGRkZGRjtzdHJva2Utd2lkdGg6NDtzdHJva2UtbGluZWNhcDpyb3VuZDtzdHJva2UtbGluZWpvaW46cm91bmQ7fSYjeGE7CS5zdDE5e2ZpbGw6I0ZGRkZGRjtzdHJva2U6I0ZGRkZGRjtzdHJva2Utd2lkdGg6MC41O30mI3hhOwkuc3QyMHtmaWxsOm5vbmU7c3Ryb2tlOiNGRkZGRkY7c3Ryb2tlLXdpZHRoOjQ7c3Ryb2tlLWxpbmVjYXA6cm91bmQ7c3Ryb2tlLW1pdGVybGltaXQ6MTA7fSYjeGE7CS5zdDIxe2ZpbGw6I0ZGRkZGRjtzdHJva2U6I0ZGRkZGRjtzdHJva2Utd2lkdGg6NDtzdHJva2UtbWl0ZXJsaW1pdDoxMDt9JiN4YTsJLnN0MjJ7ZmlsbDojMDAxMTM1O3N0cm9rZTojRkZGRkZGO3N0cm9rZS13aWR0aDo0O3N0cm9rZS1saW5lY2FwOnJvdW5kO3N0cm9rZS1taXRlcmxpbWl0OjEwO30mI3hhOwkuc3QyM3tmaWxsOm5vbmU7c3Ryb2tlOiNGRkZGRkY7c3Ryb2tlLXdpZHRoOjQ7c3Ryb2tlLWxpbmVjYXA6cm91bmQ7c3Ryb2tlLWxpbmVqb2luOnJvdW5kO30mI3hhOwkuc3QyNHtmaWxsOm5vbmU7c3Ryb2tlOiNGRkZGRkY7c3Ryb2tlLXdpZHRoOjQuMDAwMTt9JiN4YTsJLnN0MjV7ZmlsbDpub25lO3N0cm9rZTojRkZGRkZGO3N0cm9rZS13aWR0aDo0LjAwMDE7c3Ryb2tlLWxpbmVjYXA6cm91bmQ7fSYjeGE7CS5zdDI2e2ZpbGw6IzAwMTEzNTtzdHJva2U6I0ZGRkZGRjtzdHJva2Utd2lkdGg6NDt9JiN4YTsJLnN0Mjd7ZmlsbDpub25lO3N0cm9rZTojRkZGRkZGO3N0cm9rZS13aWR0aDo0O3N0cm9rZS1taXRlcmxpbWl0OjEwO3N0cm9rZS1kYXNoYXJyYXk6Ny45NjcsMy45ODM1O30mI3hhOwkuc3QyOHtmaWxsOm5vbmU7c3Ryb2tlOiNGRkZGRkY7c3Ryb2tlLXdpZHRoOjQ7c3Ryb2tlLW1pdGVybGltaXQ6MTA7c3Ryb2tlLWRhc2hhcnJheTo2LjU2MTQsMi4xODcxO30mI3hhOwkuc3QyOXtmaWxsOm5vbmU7c3Ryb2tlOiNGRkZGRkY7c3Ryb2tlLXdpZHRoOjQ7c3Ryb2tlLW1pdGVybGltaXQ6MTA7c3Ryb2tlLWRhc2hhcnJheToxNC4zOTA2LDQuNzk2OTt9JiN4YTsJLnN0MzB7ZmlsbDpub25lO3N0cm9rZTojRkZGRkZGO3N0cm9rZS13aWR0aDo0O3N0cm9rZS1taXRlcmxpbWl0OjEwO3N0cm9rZS1kYXNoYXJyYXk6OC44ODM5LDIuOTYxMzt9JiN4YTsJLnN0MzF7ZmlsbDpub25lO3N0cm9rZTojRkZGRkZGO3N0cm9rZS13aWR0aDo0O3N0cm9rZS1taXRlcmxpbWl0OjEwO3N0cm9rZS1kYXNoYXJyYXk6NC4zNzQzO30mI3hhOwkuc3QzMntmaWxsOm5vbmU7c3Ryb2tlOiNGRkZGRkY7c3Ryb2tlLXdpZHRoOjQ7c3Ryb2tlLW1pdGVybGltaXQ6MTA7c3Ryb2tlLWRhc2hhcnJheTo4LjIyNTgsMi43NDE5O30mI3hhOwkuc3QzM3tmaWxsOiMwMDExMzU7c3Ryb2tlOiNGRkZGRkY7c3Ryb2tlLXdpZHRoOjQuMDI1NTtzdHJva2UtbWl0ZXJsaW1pdDoxMDt9JiN4YTs8L3N0eWxlPiYjeGE7PHJlY3QgY2xhc3M9InN0MCIgd2lkdGg9IjE0MS43IiBoZWlnaHQ9IjE0MS43Ii8+JiN4YTs8cGF0aCBjbGFzcz0ic3QxIiBkPSJNNTcuNiwxMTYuMWgyNi41VjI1LjZINTcuNlYxMTYuMXogTTg4LjEsMTIwLjFINTMuNlYyMS42aDM0LjVWMTIwLjF6Ii8+JiN4YTs8cmVjdCB4PSI1NS42IiB5PSIzMy40IiBjbGFzcz0ic3QxIiB3aWR0aD0iMzAuNSIgaGVpZ2h0PSI0Ii8+JiN4YTs8cmVjdCB4PSI1NS42IiB5PSI4MC43IiBjbGFzcz0ic3QxIiB3aWR0aD0iMzAuNSIgaGVpZ2h0PSI0Ii8+JiN4YTs8cGF0aCBjbGFzcz0ic3QxIiBkPSJNNjQuNCw3MC45YzAtMS42LDEuMy0yLjgsMi44LTIuOGMxLjYsMCwyLjgsMS4zLDIuOCwyLjhjMCwxLjYtMS4zLDIuOC0yLjgsMi44QzY1LjYsNzMuNyw2NC40LDcyLjQsNjQuNCw3MC45Ii8+JiN4YTs8L3N2Zz4=;" vertex="1" parent="1">
          <mxGeometry x="304" y="417.29" width="26" height="26" as="geometry" />
        </mxCell>
        <mxCell id="O7J6RxFzi4Y3cEokYbyO-29" value="" style="shape=image;editableCssRules=\.st[02];verticalLabelPosition=bottom;labelBackgroundColor=#ffffff;verticalAlign=top;aspect=fixed;imageAspect=0;image=data:image/svg+xml,PHN2ZyB4bWxucz0iaHR0cDovL3d3dy53My5vcmcvMjAwMC9zdmciIHhtbG5zOnhsaW5rPSJodHRwOi8vd3d3LnczLm9yZy8xOTk5L3hsaW5rIiB2ZXJzaW9uPSIxLjEiIGlkPSJMYXllcl8xIiB4PSIwcHgiIHk9IjBweCIgd2lkdGg9IjE0MS42OTk5OTY5NDgyNDIyIiBoZWlnaHQ9IjE0MS42OTk5OTY5NDgyNDIyIiB2aWV3Qm94PSIwIDAgMTQxLjY5OTk5Njk0ODI0MjIgMTQxLjY5OTk5Njk0ODI0MjIiIHN0eWxlPSJlbmFibGUtYmFja2dyb3VuZDpuZXcgMCAwIDE0MS43IDE0MS43OyIgeG1sOnNwYWNlPSJwcmVzZXJ2ZSI+JiN4YTs8c3R5bGUgdHlwZT0idGV4dC9jc3MiPiYjeGE7CS5zdDB7ZmlsbDojMDAxMTM1O30mI3hhOwkuc3Qxe2ZpbGw6I0ZGRkZGRjt9JiN4YTsJLnN0MntmaWxsOm5vbmU7c3Ryb2tlOiNGRkZGRkY7c3Ryb2tlLXdpZHRoOjQ7c3Ryb2tlLW1pdGVybGltaXQ6MTA7fSYjeGE7CS5zdDN7ZmlsbDpub25lO3N0cm9rZTojRkZGRkZGO3N0cm9rZS13aWR0aDo0O3N0cm9rZS1saW5lam9pbjpyb3VuZDt9JiN4YTsJLnN0NHtmaWxsOiNGRkZGRkY7c3Ryb2tlOiNGRkZGRkY7c3Ryb2tlLW1pdGVybGltaXQ6MTA7fSYjeGE7CS5zdDV7ZmlsbDpub25lO30mI3hhOwkuc3Q2e2ZpbGw6I0ZGRkZGRjtzdHJva2U6I0ZGRkZGRjtzdHJva2Utd2lkdGg6MS42O3N0cm9rZS1taXRlcmxpbWl0OjEwO30mI3hhOwkuc3Q3e2ZpbGw6bm9uZTtzdHJva2U6I0ZGRkZGRjtzdHJva2Utd2lkdGg6NDt9JiN4YTsJLnN0OHtmaWxsOiMwMDExMzU7c3Ryb2tlOiNGRkZGRkY7c3Ryb2tlLXdpZHRoOjQ7c3Ryb2tlLW1pdGVybGltaXQ6MTA7fSYjeGE7CS5zdDl7ZmlsbDpub25lO3N0cm9rZTojRkZGRkZGO3N0cm9rZS13aWR0aDo0LjAwMDI7c3Ryb2tlLW1pdGVybGltaXQ6MTA7fSYjeGE7CS5zdDEwe2ZpbGw6bm9uZTtzdHJva2U6I0ZGRkZGRjtzdHJva2Utd2lkdGg6MC4zO3N0cm9rZS1taXRlcmxpbWl0OjEwO30mI3hhOwkuc3QxMXtmaWxsOm5vbmU7c3Ryb2tlOiNGRkZGRkY7c3Ryb2tlLXdpZHRoOjMuOTk5NTtzdHJva2UtbWl0ZXJsaW1pdDoxMDt9JiN4YTsJLnN0MTJ7ZmlsbDpub25lO3N0cm9rZTojRkZGRkZGO3N0cm9rZS13aWR0aDozLjk5OTY7c3Ryb2tlLW1pdGVybGltaXQ6MTA7fSYjeGE7CS5zdDEze2ZpbGw6bm9uZTtzdHJva2U6I0ZGRkZGRjtzdHJva2Utd2lkdGg6MztzdHJva2UtbWl0ZXJsaW1pdDoxMDt9JiN4YTsJLnN0MTR7ZmlsbDpub25lO3N0cm9rZTojRkZGRkZGO3N0cm9rZS13aWR0aDo0O3N0cm9rZS1saW5lam9pbjpyb3VuZDtzdHJva2UtbWl0ZXJsaW1pdDoxMDt9JiN4YTsJLnN0MTV7ZmlsbDpub25lO3N0cm9rZTojRkZGRkZGO3N0cm9rZS13aWR0aDo0O3N0cm9rZS1saW5lY2FwOnJvdW5kO3N0cm9rZS1saW5lam9pbjpyb3VuZDtzdHJva2UtbWl0ZXJsaW1pdDoxMDt9JiN4YTsJLnN0MTZ7ZmlsbDojMDAxODQ1O3N0cm9rZTojRkZGRkZGO3N0cm9rZS13aWR0aDo0LjM1NjY7c3Ryb2tlLWxpbmVjYXA6cm91bmQ7c3Ryb2tlLWxpbmVqb2luOnJvdW5kO3N0cm9rZS1taXRlcmxpbWl0OjEwO30mI3hhOwkuc3QxN3tmaWxsOm5vbmU7c3Ryb2tlOiNGRkZGRkY7c3Ryb2tlLXdpZHRoOjQ7c3Ryb2tlLWxpbmVjYXA6cm91bmQ7fSYjeGE7CS5zdDE4e2ZpbGw6IzAwMTEzNTtzdHJva2U6I0ZGRkZGRjtzdHJva2Utd2lkdGg6NDtzdHJva2UtbGluZWNhcDpyb3VuZDtzdHJva2UtbGluZWpvaW46cm91bmQ7fSYjeGE7CS5zdDE5e2ZpbGw6I0ZGRkZGRjtzdHJva2U6I0ZGRkZGRjtzdHJva2Utd2lkdGg6MC41O30mI3hhOwkuc3QyMHtmaWxsOm5vbmU7c3Ryb2tlOiNGRkZGRkY7c3Ryb2tlLXdpZHRoOjQ7c3Ryb2tlLWxpbmVjYXA6cm91bmQ7c3Ryb2tlLW1pdGVybGltaXQ6MTA7fSYjeGE7CS5zdDIxe2ZpbGw6I0ZGRkZGRjtzdHJva2U6I0ZGRkZGRjtzdHJva2Utd2lkdGg6NDtzdHJva2UtbWl0ZXJsaW1pdDoxMDt9JiN4YTsJLnN0MjJ7ZmlsbDojMDAxMTM1O3N0cm9rZTojRkZGRkZGO3N0cm9rZS13aWR0aDo0O3N0cm9rZS1saW5lY2FwOnJvdW5kO3N0cm9rZS1taXRlcmxpbWl0OjEwO30mI3hhOwkuc3QyM3tmaWxsOm5vbmU7c3Ryb2tlOiNGRkZGRkY7c3Ryb2tlLXdpZHRoOjQ7c3Ryb2tlLWxpbmVjYXA6cm91bmQ7c3Ryb2tlLWxpbmVqb2luOnJvdW5kO30mI3hhOwkuc3QyNHtmaWxsOm5vbmU7c3Ryb2tlOiNGRkZGRkY7c3Ryb2tlLXdpZHRoOjQuMDAwMTt9JiN4YTsJLnN0MjV7ZmlsbDpub25lO3N0cm9rZTojRkZGRkZGO3N0cm9rZS13aWR0aDo0LjAwMDE7c3Ryb2tlLWxpbmVjYXA6cm91bmQ7fSYjeGE7CS5zdDI2e2ZpbGw6IzAwMTEzNTtzdHJva2U6I0ZGRkZGRjtzdHJva2Utd2lkdGg6NDt9JiN4YTsJLnN0Mjd7ZmlsbDpub25lO3N0cm9rZTojRkZGRkZGO3N0cm9rZS13aWR0aDo0O3N0cm9rZS1taXRlcmxpbWl0OjEwO3N0cm9rZS1kYXNoYXJyYXk6Ny45NjcsMy45ODM1O30mI3hhOwkuc3QyOHtmaWxsOm5vbmU7c3Ryb2tlOiNGRkZGRkY7c3Ryb2tlLXdpZHRoOjQ7c3Ryb2tlLW1pdGVybGltaXQ6MTA7c3Ryb2tlLWRhc2hhcnJheTo2LjU2MTQsMi4xODcxO30mI3hhOwkuc3QyOXtmaWxsOm5vbmU7c3Ryb2tlOiNGRkZGRkY7c3Ryb2tlLXdpZHRoOjQ7c3Ryb2tlLW1pdGVybGltaXQ6MTA7c3Ryb2tlLWRhc2hhcnJheToxNC4zOTA2LDQuNzk2OTt9JiN4YTsJLnN0MzB7ZmlsbDpub25lO3N0cm9rZTojRkZGRkZGO3N0cm9rZS13aWR0aDo0O3N0cm9rZS1taXRlcmxpbWl0OjEwO3N0cm9rZS1kYXNoYXJyYXk6OC44ODM5LDIuOTYxMzt9JiN4YTsJLnN0MzF7ZmlsbDpub25lO3N0cm9rZTojRkZGRkZGO3N0cm9rZS13aWR0aDo0O3N0cm9rZS1taXRlcmxpbWl0OjEwO3N0cm9rZS1kYXNoYXJyYXk6NC4zNzQzO30mI3hhOwkuc3QzMntmaWxsOm5vbmU7c3Ryb2tlOiNGRkZGRkY7c3Ryb2tlLXdpZHRoOjQ7c3Ryb2tlLW1pdGVybGltaXQ6MTA7c3Ryb2tlLWRhc2hhcnJheTo4LjIyNTgsMi43NDE5O30mI3hhOwkuc3QzM3tmaWxsOiMwMDExMzU7c3Ryb2tlOiNGRkZGRkY7c3Ryb2tlLXdpZHRoOjQuMDI1NTtzdHJva2UtbWl0ZXJsaW1pdDoxMDt9JiN4YTs8L3N0eWxlPiYjeGE7PHJlY3QgY2xhc3M9InN0MCIgd2lkdGg9IjE0MS43IiBoZWlnaHQ9IjE0MS43Ii8+JiN4YTs8cGF0aCBjbGFzcz0ic3QxIiBkPSJNNTcuNiwxMTYuMWgyNi41VjI1LjZINTcuNlYxMTYuMXogTTg4LjEsMTIwLjFINTMuNlYyMS42aDM0LjVWMTIwLjF6Ii8+JiN4YTs8cmVjdCB4PSI1NS42IiB5PSIzMy40IiBjbGFzcz0ic3QxIiB3aWR0aD0iMzAuNSIgaGVpZ2h0PSI0Ii8+JiN4YTs8cmVjdCB4PSI1NS42IiB5PSI4MC43IiBjbGFzcz0ic3QxIiB3aWR0aD0iMzAuNSIgaGVpZ2h0PSI0Ii8+JiN4YTs8cGF0aCBjbGFzcz0ic3QxIiBkPSJNNjQuNCw3MC45YzAtMS42LDEuMy0yLjgsMi44LTIuOGMxLjYsMCwyLjgsMS4zLDIuOCwyLjhjMCwxLjYtMS4zLDIuOC0yLjgsMi44QzY1LjYsNzMuNyw2NC40LDcyLjQsNjQuNCw3MC45Ii8+JiN4YTs8L3N2Zz4=;" vertex="1" parent="1">
          <mxGeometry x="415" y="417.29" width="26" height="26" as="geometry" />
        </mxCell>
      </root>
    </mxGraphModel>
  </diagram>
</mxfile>
